<?xml version="1.0" encoding="utf-8"?>
<!-- Generator: Adobe Illustrator 27.8.1, SVG Export Plug-In . SVG Version: 6.00 Build 0)  -->
<svg version="1.1" id="Layer_1" xmlns="http://www.w3.org/2000/svg" xmlns:xlink="http://www.w3.org/1999/xlink" x="0px" y="0px"
	 viewBox="0 0 1218.8 541.5" style="enable-background:new 0 0 1218.8 541.5;" xml:space="preserve">
<style type="text/css">
	.st0{fill:#005BAA;}
</style>
<g>
	<g>
		<path d="M55.4,302.4l-29.2,0.8c-11.3,0.4-16.1,1.4-19,5.7c-2,2.9-2.9,5.3-3.3,6.9c-0.4,1.6-1,2.3-2.1,2.3c-1.4,0-1.8-1-1.8-3.1
			c0-3.1,3.7-21,4.1-22.5c0.6-2.6,1.2-3.7,2.3-3.7c1.6,0,3.5,2,8.4,2.4c5.7,0.6,13.1,1,19.6,1H112c6.3,0,10.6-0.6,13.5-1
			c3-0.6,4.5-1,5.3-1c1.4,0,1.6,1.2,1.6,4.1c0,4.1-0.6,17.6-0.6,22.7c-0.2,2-0.6,3.1-1.8,3.1c-1.6,0-2-1-2.1-3.9l-0.2-2.2
			c-0.4-5.1-5.7-10.6-23.1-11l-24.7-0.6v80.3c0,18,0,33.5,1,41.9c0.6,5.5,1.8,9.8,7.7,10.6c2.7,0.4,7.1,0.8,10,0.8
			c2.1,0,3.1,0.6,3.1,1.6c0,1.4-1.6,2-3.7,2c-12.9,0-25.3-0.6-30.8-0.6c-4.5,0-16.9,0.6-24.7,0.6c-2.6,0-3.9-0.6-3.9-2
			c0-1,0.8-1.6,3.1-1.6c2.9,0,5.3-0.4,7.1-0.8c3.9-0.8,5.1-5.1,5.7-10.8c1-8.2,1-23.7,1-41.7v-80.3H55.4z"/>
		<path d="M169,348.3c0-29.8,0-35.3-0.4-41.5c-0.4-6.7-2-9.8-8.4-11.2c-1.6-0.4-4.9-0.6-7.7-0.6c-2.1,0-3.3-0.4-3.3-1.8
			c0-1.4,1.4-1.8,4.3-1.8c10.4,0,22.7,0.6,28.6,0.6c4.7,0,17-0.6,24.1-0.6c2.9,0,4.3,0.4,4.3,1.8c0,1.4-1.2,1.8-3.1,1.8
			c-2.1,0-3.3,0.2-5.7,0.6c-5.3,1-6.9,4.3-7.2,11.2c-0.4,6.3-0.4,11.8-0.4,41.5v27.4c0,28.4,5.7,40.4,15.3,48.2
			c8.8,7.2,17.8,8,24.5,8c8.6,0,19.2-2.7,27-10.6c10.8-10.8,11.4-28.4,11.4-48.6v-24.5c0-29.8,0-35.3-0.4-41.5
			c-0.4-6.7-2-9.8-8.4-11.2c-1.6-0.4-4.9-0.6-7.1-0.6s-3.3-0.4-3.3-1.8c0-1.4,1.4-1.8,4.1-1.8c10,0,22.3,0.6,22.5,0.6
			c2.4,0,14.7-0.6,22.3-0.6c2.7,0,4.1,0.4,4.1,1.8c0,1.4-1.2,1.8-3.5,1.8c-2.2,0-3.3,0.2-5.7,0.6c-5.3,1-6.8,4.3-7.2,11.2
			c-0.4,6.3-0.4,11.8-0.4,41.5v21c0,21.8-2.2,44.9-18.6,59c-13.9,12-28,14.1-40.7,14.1c-10.4,0-29.2-0.6-43.5-13.5
			c-10-9-17.4-23.5-17.4-51.9L169,348.3L169,348.3z M202.9,267.2c0-3.7,2.7-9,9-9c5.1,0,9.2,3.1,9.2,8.4c0,5.5-3.7,9.8-9.4,9.8
			C205.4,276.4,202.9,271.3,202.9,267.2z M244.2,267.2c0-3.9,2.8-9.2,9-9.2c5.1,0,9.2,3.1,9.2,8.6s-3.7,9.8-9.4,9.8
			C246.8,276.4,244.2,271.3,244.2,267.2z"/>
		<path d="M404.4,428.2c20,0,27.6-4.9,30.8-10.8c1.8-3.1,2.9-6.7,3.5-9.4c0.4-2,0.8-3.1,2-3.1c1.6,0,2,1.4,2,6.1
			c0,6.3-2.6,19-3.9,23.9c-1,3.5-2.4,5.1-5.9,5.1c-32.7,0-65.6-1-105.2-1c-2.2,0-3.3-0.6-3.3-2s0.6-2.4,2.9-5.9
			c27.6-43.1,56.6-87.4,82.9-128.7h-38.5c-10,0-22,0.6-28.2,4.1c-6.5,3.5-10,10.8-10.6,15.3c-0.4,2.7-1.2,3.5-2.4,3.5
			c-1.4,0-1.6-1-1.6-3.3c0-4.5,2.9-22.3,3.9-28.2c0.4-2.7,1.2-3.7,2.3-3.7c1.8,0,2.9,1.2,7.8,1.4c18.6,0.8,28,0.6,36,0.6h59.8
			c2,0,3.3,0.6,3.3,1.6c0,1.2-0.8,2.4-1.6,3.7c-27,43.9-56.8,88.7-84.4,130.9L404.4,428.2L404.4,428.2z"/>
		<path d="M481.9,348.3c0-29.8,0-35.3-0.4-41.5c-0.4-6.7-2-9.8-8.4-11.2c-1.6-0.4-4.9-0.6-7.7-0.6c-2.1,0-3.3-0.4-3.3-1.8
			c0-1.4,1.4-1.8,4.3-1.8c10.4,0,22.7,0.6,28.6,0.6c4.7,0,17-0.6,24.1-0.6c2.9,0,4.3,0.4,4.3,1.8c0,1.4-1.2,1.8-3.1,1.8
			c-2.1,0-3.3,0.2-5.7,0.6c-5.3,1-6.9,4.3-7.2,11.2c-0.4,6.3-0.4,11.8-0.4,41.5v27.4c0,28.4,5.7,40.4,15.3,48.2
			c8.8,7.2,17.8,8,24.5,8c8.6,0,19.2-2.7,27-10.6c10.8-10.8,11.4-28.4,11.4-48.6v-24.5c0-29.8,0-35.3-0.4-41.5
			c-0.4-6.7-2-9.8-8.4-11.2c-1.6-0.4-4.9-0.6-7.1-0.6c-2.1,0-3.3-0.4-3.3-1.8c0-1.4,1.4-1.8,4.1-1.8c10,0,22.3,0.6,22.5,0.6
			c2.4,0,14.7-0.6,22.3-0.6c2.7,0,4.1,0.4,4.1,1.8c0,1.4-1.2,1.8-3.5,1.8c-2.2,0-3.3,0.2-5.7,0.6c-5.3,1-6.8,4.3-7.2,11.2
			c-0.4,6.3-0.4,11.8-0.4,41.5v21c0,21.8-2.2,44.9-18.6,59c-13.9,12-28,14.1-40.7,14.1c-10.4,0-29.2-0.6-43.5-13.5
			c-10-9-17.4-23.5-17.4-51.9L481.9,348.3L481.9,348.3z M515.8,267.2c0-3.7,2.7-9,9-9c5.1,0,9.2,3.1,9.2,8.4c0,5.5-3.7,9.8-9.4,9.8
			C518.4,276.4,515.8,271.3,515.8,267.2z M557.1,267.2c0-3.9,2.8-9.2,9-9.2c5.1,0,9.2,3.1,9.2,8.6s-3.7,9.8-9.4,9.8
			C559.7,276.4,557.1,271.3,557.1,267.2z"/>
		<path d="M664.4,412.9c0.4,15.3,2.9,20.4,6.9,21.7c3.3,1.2,7.1,1.4,10.2,1.4c2.2,0,3.3,0.4,3.3,1.6c0,1.6-1.8,2-4.5,2
			c-12.7,0-20.6-0.6-24.3-0.6c-1.8,0-11,0.6-21.2,0.6c-2.6,0-4.3-0.2-4.3-2c0-1.2,1.2-1.6,3.1-1.6c2.6,0,6.1-0.2,8.8-1
			c5.1-1.6,5.9-7.2,6.1-24.3l1.8-116c0-3.9,0.6-6.7,2.6-6.7c2.2,0,3.9,2.6,7.2,6.1c2.4,2.5,32.1,34.5,60.7,62.9
			c13.3,13.3,39.8,41.5,43.1,44.7h1l-2-88c-0.2-11.9-2-15.7-6.7-17.6c-3-1.2-7.7-1.2-10.4-1.2c-2.3,0-3.1-0.6-3.1-1.8
			c0-1.6,2.1-1.8,5.1-1.8c10.2,0,19.6,0.6,23.7,0.6c2.1,0,9.6-0.6,19.2-0.6c2.6,0,4.5,0.2,4.5,1.8c0,1.2-1.2,1.8-3.5,1.8
			c-2,0-3.5,0-5.9,0.6c-5.5,1.6-7.1,5.7-7.2,16.7l-2.2,123.6c0,4.3-0.8,6.1-2.6,6.1c-2.1,0-4.5-2.2-6.7-4.3
			c-12.3-11.8-37.4-37.4-57.8-57.6c-21.3-21.2-43.1-45.6-46.6-49.4h-0.6L664.4,412.9z"/>
		<path d="M864.5,382.8c0,25.1,0,38.6,4.1,42.1c3.3,2.9,8.4,4.3,23.7,4.3c10.4,0,18-0.2,22.9-5.5c2.4-2.6,4.7-8,5.1-11.8
			c0.2-1.8,0.6-2.9,2.1-2.9c1.4,0,1.6,1,1.6,3.3c0,2.2-1.4,16.9-3,22.5c-1.2,4.3-2.1,5.3-12.3,5.3c-14.1,0-24.3-0.4-33.1-0.6
			c-8.8-0.4-15.9-0.6-23.9-0.6c-2.1,0-6.5,0-11.2,0.2c-4.5,0-9.6,0.4-13.5,0.4c-2.5,0-3.9-0.6-3.9-2c0-1,0.8-1.6,3.1-1.6
			c2.9,0,5.3-0.4,7-0.8c3.9-0.8,4.9-5.1,5.7-10.8c1-8.2,1-23.7,1-41.7v-34.5c0-29.8,0-35.3-0.4-41.5c-0.4-6.7-2-9.8-8.4-11.2
			c-1.6-0.4-3.9-0.6-6.5-0.6c-2.2,0-3.3-0.4-3.3-1.8c0-1.4,1.4-1.8,4.3-1.8c9.2,0,21.5,0.6,26.8,0.6c4.7,0,19-0.6,26.7-0.6
			c2.7,0,4.1,0.4,4.1,1.8c0,1.4-1.2,1.8-3.5,1.8c-2.1,0-5.3,0.2-7.6,0.6c-5.3,1-6.9,4.3-7.2,11.2c-0.4,6.3-0.4,11.8-0.4,41.5
			L864.5,382.8L864.5,382.8z"/>
		<path d="M961.6,348.3c0-29.8,0-35.3-0.4-41.5c-0.4-6.7-2-9.8-8.4-11.2c-1.6-0.4-4.9-0.6-7.7-0.6c-2.1,0-3.3-0.4-3.3-1.8
			c0-1.4,1.4-1.8,4.3-1.8c5.3,0,11,0.2,15.9,0.2c5.1,0.2,9.6,0.4,12.3,0.4c6.3,0,45.3,0,49-0.2c3.7-0.4,6.8-0.8,8.4-1.2
			c1-0.2,2.2-0.8,3.1-0.8c1,0,1.2,0.8,1.2,1.8c0,1.4-1,3.7-1.6,12.7c-0.2,2-0.6,10.6-1,12.9c-0.2,1-0.6,2.2-2,2.2s-1.8-1-1.8-2.7
			c0-1.4-0.2-4.7-1.2-7.1c-1.4-3.5-3.3-5.9-13.1-7c-3.3-0.4-23.9-0.8-27.8-0.8c-1,0-1.4,0.6-1.4,2v49.6c0,1.4,0.2,2.2,1.4,2.2
			c4.3,0,26.8,0,31.3-0.4c4.7-0.4,7.7-1,9.4-2.9c1.4-1.6,2.2-2.6,3.1-2.6c0.8,0,1.4,0.4,1.4,1.6c0,1.2-0.8,4.3-1.6,14.3
			c-0.2,3.9-0.8,11.8-0.8,13.1c0,1.6,0,3.7-1.8,3.7c-1.4,0-1.8-0.8-1.8-1.8c-0.2-2-0.2-4.5-0.8-7.1c-1-3.9-3.7-6.9-11-7.6
			c-3.7-0.4-23.1-0.6-27.8-0.6c-1,0-1.2,0.8-1.2,2v15.5c0,6.7-0.2,24.7,0,30.4c0.4,13.5,3.5,16.5,23.5,16.5c5.1,0,13.3,0,18.4-2.3
			c5.1-2.4,7.5-6.5,8.8-14.5c0.4-2.1,0.8-2.9,2.2-2.9c1.6,0,1.6,1.6,1.6,3.5c0,4.5-1.6,17.8-2.6,21.7c-1.4,5.1-3.1,5.1-10.6,5.1
			c-14.7,0-25.5-0.4-33.9-0.6c-8.4-0.4-14.5-0.6-20.4-0.6c-2.1,0-6.5,0-11.2,0.2c-4.5,0-9.6,0.4-13.5,0.4c-2.5,0-3.9-0.6-3.9-2
			c0-1,0.8-1.6,3.1-1.6c2.9,0,5.3-0.4,7-0.8c3.9-0.8,4.9-5.1,5.7-10.8c1-8.2,1-23.7,1-41.7v-34.5H961.6z"/>
		<path d="M1084,348.3c0-29.8,0-35.3-0.4-41.5c-0.4-6.7-2-9.8-8.4-11.2c-1.6-0.4-4.9-0.6-7.6-0.6c-2.2,0-3.3-0.4-3.3-1.8
			c0-1.4,1.4-1.8,4.3-1.8c10.4,0,22.7,0.6,26.8,0.6c6.7,0,21.5-0.6,27.6-0.6c12.3,0,25.5,1.2,36.1,8.4c5.5,3.7,13.3,13.7,13.3,26.8
			c0,14.5-6.1,27.8-25.9,43.9c17.4,21.9,30.9,39.4,42.5,51.5c11,11.4,19,12.7,22,13.3c2.1,0.4,3.9,0.6,5.5,0.6s2.3,0.6,2.3,1.6
			c0,1.6-1.4,2-3.7,2h-18.6c-11,0-15.9-1-21-3.7c-8.4-4.5-15.9-13.7-26.8-28.8c-7.8-10.8-16.9-24.1-19.4-27c-1-1.2-2.1-1.4-3.5-1.4
			l-17-0.4c-1,0-1.6,0.4-1.6,1.6v2.7c0,18.2,0,33.7,1,41.9c0.6,5.7,1.8,10,7.6,10.8c3,0.4,7.2,0.8,9.6,0.8c1.6,0,2.4,0.6,2.4,1.6
			c0,1.4-1.4,2-3.9,2c-11.3,0-25.9-0.6-28.8-0.6c-3.7,0-16.1,0.6-23.9,0.6c-2.5,0-3.9-0.6-3.9-2c0-1,0.8-1.6,3.1-1.6
			c2.9,0,5.3-0.4,7-0.8c3.9-0.8,4.9-5.1,5.7-10.8c1-8.2,1-23.7,1-41.7L1084,348.3L1084,348.3z M1107.2,363.8c0,2.2,0.4,2.9,1.8,3.5
			c4.1,1.4,10,2,14.9,2c7.8,0,10.4-0.8,13.9-3.3c5.9-4.3,11.6-13.3,11.6-29.4c0-27.8-18.4-35.9-30-35.9c-4.9,0-8.4,0.2-10.4,0.8
			c-1.4,0.4-1.8,1.2-1.8,2.7V363.8z"/>
	</g>
	<g>
		<path d="M488.8,533.8c0,2.6-0.1,2.8-1.2,3.4c-6.2,3.3-15.6,4.3-23.1,4.3c-23.5,0-44.2-11.1-44.2-37.5c0-15.3,7.9-26,16.7-31.3
			c9.2-5.5,17.7-6.2,25.7-6.2c6.6,0,15,1.2,16.9,1.5c2,0.4,5.4,1,7.6,1.1c1.2,0.1,1.3,0.5,1.3,1.2c0,1-0.7,3.7-0.7,15.7
			c0,1.5-0.3,2-1,2s-0.9-0.5-1-1.2c-0.3-2.2-0.8-5.3-3.3-7.9c-2.9-3.1-10.5-7.5-21.3-7.5c-5.3,0-12.2,0.4-19,5.9
			c-5.4,4.5-8.8,11.7-8.8,23.5c0,20.6,13.1,36,33.3,36c2.5,0,5.8,0,8.1-1.1c1.4-0.7,1.8-1.9,1.8-3.5v-9c0-4.8,0-8.4-0.1-11.3
			c-0.1-3.3-1-4.8-4.1-5.5c-0.8-0.2-2.4-0.3-3.7-0.3c-0.9,0-1.4-0.2-1.4-0.8c0-0.8,0.7-1,2-1c5,0,11,0.3,13.9,0.3
			c3,0,8-0.3,11.2-0.3c1.2,0,1.9,0.2,1.9,1c0,0.6-0.6,0.8-1.2,0.8c-0.8,0-1.4,0.1-2.6,0.3c-2.6,0.5-3.5,2.1-3.6,5.5
			c-0.1,2.9-0.1,6.7-0.1,11.5L488.8,533.8L488.8,533.8z"/>
		<path d="M542.3,495.6c0-14.5,0-17.2-0.2-20.3c-0.2-3.3-1-4.8-4.1-5.5c-0.8-0.2-2.4-0.3-3.7-0.3c-1,0-1.6-0.2-1.6-0.9
			s0.7-0.9,2.1-0.9c5.1,0,11.1,0.3,13.1,0.3c3.2,0,10.5-0.3,13.5-0.3c6,0,12.4,0.6,17.6,4.1c2.7,1.8,6.5,6.7,6.5,13.1
			c0,7.1-3,13.6-12.6,21.4c8.5,10.7,15.1,19.2,20.8,25.2c5.4,5.6,9.3,6.2,10.7,6.5c1,0.2,1.9,0.3,2.7,0.3s1.1,0.3,1.1,0.8
			c0,0.8-0.7,1-1.8,1h-9.1c-5.4,0-7.7-0.5-10.2-1.8c-4.1-2.2-7.8-6.7-13.1-14.1c-3.8-5.3-8.2-11.8-9.5-13.2c-0.5-0.6-1-0.7-1.7-0.7
			l-8.3-0.2c-0.5,0-0.8,0.2-0.8,0.8v1.3c0,8.9,0,16.5,0.5,20.5c0.3,2.8,0.9,4.9,3.7,5.3c1.4,0.2,3.5,0.4,4.7,0.4
			c0.8,0,1.2,0.3,1.2,0.8c0,0.7-0.7,1-1.9,1c-5.5,0-12.6-0.3-14.1-0.3c-1.8,0-7.8,0.3-11.7,0.3c-1.2,0-1.9-0.3-1.9-1
			c0-0.5,0.4-0.8,1.5-0.8c1.4,0,2.6-0.2,3.4-0.4c1.9-0.4,2.4-2.5,2.8-5.3c0.5-4,0.5-11.6,0.5-20.4v-16.7H542.3z M553.6,503.2
			c0,1.1,0.2,1.4,0.9,1.7c2,0.7,4.9,1,7.3,1c3.8,0,5.1-0.4,6.8-1.6c2.9-2.1,5.6-6.5,5.6-14.4c0-13.6-9-17.5-14.6-17.5
			c-2.4,0-4.1,0.1-5.1,0.4c-0.7,0.2-0.9,0.6-0.9,1.3V503.2z"/>
		<path d="M639.4,495.6c0-14.5,0-17.2-0.2-20.3c-0.2-3.3-1-4.8-4.1-5.5c-0.8-0.2-2.4-0.3-3.7-0.3c-1,0-1.6-0.2-1.6-0.9
			s0.7-0.9,2.1-0.9c5.1,0,11.1,0.3,14,0.3c2.3,0,8.3-0.3,11.8-0.3c1.4,0,2.1,0.2,2.1,0.9s-0.6,0.9-1.5,0.9c-1,0-1.6,0.1-2.8,0.3
			c-2.6,0.5-3.4,2.1-3.5,5.5c-0.2,3.1-0.2,5.7-0.2,20.3V509c0,13.9,2.8,19.7,7.5,23.5c4.3,3.5,8.7,3.9,12,3.9
			c4.2,0,9.4-1.3,13.2-5.2c5.3-5.3,5.6-13.9,5.6-23.7v-12c0-14.5,0-17.2-0.2-20.3c-0.2-3.3-1-4.8-4.1-5.5c-0.8-0.2-2.4-0.3-3.4-0.3
			s-1.6-0.2-1.6-0.9s0.7-0.9,2-0.9c4.9,0,10.9,0.3,11,0.3c1.2,0,7.2-0.3,10.9-0.3c1.3,0,2,0.2,2,0.9s-0.6,0.9-1.7,0.9
			c-1.1,0-1.6,0.1-2.8,0.3c-2.6,0.5-3.3,2.1-3.5,5.5c-0.2,3.1-0.2,5.7-0.2,20.3v10.2c0,10.6-1.1,21.9-9.1,28.8
			c-6.8,5.8-13.7,6.9-19.9,6.9c-5.1,0-14.3-0.3-21.2-6.6c-4.9-4.4-8.5-11.5-8.5-25.4v-13.8H639.4z"/>
		<path d="M755.7,495.6c0-14.5,0-17.2-0.2-20.3c-0.2-3.3-1-4.8-4.1-5.5c-0.8-0.2-2.4-0.3-3.7-0.3c-1,0-1.6-0.2-1.6-0.9
			s0.7-0.9,2.1-0.9c5.1,0,11.1,0.3,13.8,0.3c3.9,0,9.5-0.3,13.9-0.3c12,0,16.3,4,17.8,5.5c2.1,2,4.8,6.3,4.8,11.4
			c0,13.6-9.9,23.2-23.5,23.2c-0.5,0-1.5,0-2-0.1s-1.2-0.2-1.2-0.9c0-0.8,0.7-1.1,2.7-1.1c5.4,0,12.8-6,12.8-15.8
			c0-3.2-0.3-9.6-5.6-14.4c-3.4-3.2-7.4-3.7-9.6-3.7c-1.4,0-2.9,0.1-3.7,0.4c-0.5,0.2-0.8,0.8-0.8,1.8v38.3c0,8.8,0,16.4,0.5,20.5
			c0.3,2.7,0.9,4.8,3.7,5.2c1.3,0.2,3.4,0.4,4.9,0.4c1,0,1.5,0.3,1.5,0.8c0,0.7-0.8,1-1.8,1c-6.3,0-12.3-0.3-14.8-0.3
			c-2.2,0-8.2,0.3-12.1,0.3c-1.2,0-1.9-0.3-1.9-1c0-0.5,0.4-0.8,1.5-0.8c1.4,0,2.6-0.2,3.4-0.4c1.9-0.4,2.4-2.5,2.8-5.3
			c0.5-4,0.5-11.6,0.5-20.4v-16.7H755.7z"/>
	</g>
	<g>
		<g>
			<path class="st0" d="M695.5,71.1c-2.1-3.7-3.4-7.7-3.3-12c0.1-5.2,1.6-11.7,8-14.1l0,0c-0.4,0.1-0.7,0.2-1.2,0.2
				c-6.2,0.7-24.4,9-35.2,13.9c2.4,4.6,3.4,10.4,2.5,17c-2.6,19.2-20.1,37.7-39,41.5c-4.1,0.8-8,0.8-11.4,0.2
				c-3.1,2.3-7.9,6.6-8.5,10.8c-0.8,6.2,4.2,8.2,13.8,6.3s20.3-4,22-4.3c18.9-3.7,28.9,8.6,27.3,20.5c-3,21.8-29.2,45.8-53.1,50.4
				c-23.9,4.7-40-5-38-19.8c1.9-14.2,13.8-24.1,23.4-29.9c-4-1-7.3-3.5-10.2-8.3c-8.8,9.2-18.5,17.2-26.6,18.7
				c-16.7,3.3-18.8-9.4-17-23.2c0.8-5.9,2.8-20.5,4.8-35.3c-11,3.9-28,10.1-33.8,14.2c-8.1,5.7,0.9-10.7,4.2-12
				c2.4-1,17.7-4.4,30.7-10.3c2.3-17.1,4.4-32.3,4.4-32.3l15.6-3.1c0,0-8.1,59.5-9.7,71.3c-1.6,11.8,1.8,16.9,9.7,15.4
				c9.5-1.9,26-22,33.7-31.8c-7.9-4.6-12.3-13.8-10.7-25.6c2.6-19.2,20.1-37.7,39-41.5c9.1-1.8,16.8,0.2,22.1,4.9
				c5.3-1.5,11.2-4,16.6-6.6c-19.3-17.5-45.5-27.5-74.1-25.3c-48,3.7-86.9,42.6-90.7,90.6C506,172.5,556.4,223,617.3,218.3
				c48.9-3.8,88.2-44,90.9-93C709.3,105.6,704.5,87,695.5,71.1z"/>
			<path class="st0" d="M619,192.1c16.3-3.2,34.4-17.2,36.3-31.1c1.9-13.9-10.8-15-28.8-11.4c-4.8,0.9-9,1.8-12.8,2.3
				c-7.6,5.5-16.4,13.8-17.7,23.2C594.4,187.4,602.7,195.3,619,192.1z"/>
			<path class="st0" d="M635.9,54.8c-10.5,2-20.6,16.3-22.7,31.8c-2.1,15.5,4.7,26.5,15.1,24.4c10.5-2,20.6-16.3,22.7-31.8
				C653.1,63.7,646.3,52.7,635.9,54.8z"/>
		</g>
		<path class="st0" d="M609.4,239.6c-66.1,0-119.8-53.7-119.8-119.8S543.4,0,609.4,0s119.8,53.7,119.8,119.8
			S675.4,239.6,609.4,239.6z M609.4,6.6c-62.4,0-113.2,50.8-113.2,113.2S547,233,609.4,233s113.2-50.8,113.2-113.2
			S671.8,6.6,609.4,6.6z"/>
	</g>
</g>
</svg>
