<?xml version="1.0" encoding="utf-8"?>
<!-- Generator: Adobe Illustrator 27.8.1, SVG Export Plug-In . SVG Version: 6.00 Build 0)  -->
<svg version="1.1" id="Layer_1" xmlns="http://www.w3.org/2000/svg" xmlns:xlink="http://www.w3.org/1999/xlink" x="0px" y="0px"
	 viewBox="0 0 1270.1 295.5" style="enable-background:new 0 0 1270.1 295.5;" xml:space="preserve">
<g>
	<g>
		<path d="M57.7,46.4l-30.4,0.8c-11.8,0.4-16.7,1.4-19.8,5.9c-2,3.1-3.1,5.5-3.5,7.1s-1,2.4-2.2,2.4c-1.4,0-1.8-1-1.8-3.3
			C0,56,3.9,37.5,4.3,35.8c0.6-2.7,1.2-3.9,2.4-3.9c1.6,0,3.7,2,8.8,2.5c5.9,0.6,13.7,1,20.4,1h80.8c6.5,0,11-0.6,14.1-1
			c3.1-0.6,4.7-1,5.5-1c1.4,0,1.6,1.2,1.6,4.3c0,4.3-0.6,18.4-0.6,23.7c-0.2,2-0.6,3.3-1.8,3.3c-1.6,0-2-1-2.2-4.1l-0.2-2.2
			c-0.4-5.3-5.9-11-24.1-11.4l-25.7-0.6v83.7c0,18.8,0,34.9,1,43.7c0.6,5.7,1.8,10.2,8,11c2.9,0.4,7.4,0.8,10.4,0.8
			c2.2,0,3.3,0.6,3.3,1.6c0,1.4-1.6,2-3.9,2c-13.5,0-26.3-0.6-32-0.6c-4.7,0-17.6,0.6-25.7,0.6c-2.7,0-4.1-0.6-4.1-2
			c0-1,0.8-1.6,3.3-1.6c3.1,0,5.5-0.4,7.4-0.8c4.1-0.8,5.3-5.3,5.9-11.2c1-8.6,1-24.7,1-43.5V46.4H57.7z"/>
		<path d="M176.1,94.1c0-31,0-36.7-0.4-43.3c-0.4-6.9-2-10.2-8.8-11.6c-1.6-0.4-5.1-0.6-8-0.6c-2.2,0-3.5-0.4-3.5-1.8
			c0-1.4,1.4-1.8,4.5-1.8c10.8,0,23.7,0.6,29.8,0.6c4.9,0,17.8-0.6,25.1-0.6c3.1,0,4.5,0.4,4.5,1.8c0,1.4-1.2,1.8-3.3,1.8
			c-2.2,0-3.5,0.2-5.9,0.6c-5.5,1-7.2,4.5-7.6,11.6c-0.2,6.6-0.2,12.3-0.2,43.3v28.6c0,29.6,5.9,42,15.9,50.2
			c9.2,7.6,18.6,8.4,25.5,8.4c9,0,20-2.9,28.2-11c11.2-11.2,11.8-29.6,11.8-50.6V94.1c0-31,0-36.7-0.4-43.3
			c-0.4-6.9-2-10.2-8.8-11.6c-1.6-0.4-5.1-0.6-7.4-0.6c-2.2,0-3.5-0.4-3.5-1.8c0-1.4,1.4-1.8,4.3-1.8c10.4,0,23.3,0.6,23.5,0.6
			c2.5,0,15.3-0.6,23.3-0.6c2.9,0,4.3,0.4,4.3,1.8c0,1.4-1.2,1.8-3.7,1.8c-2.3,0-3.5,0.2-5.9,0.6c-5.5,1-7.1,4.5-7.6,11.6
			c-0.4,6.5-0.4,12.2-0.4,43.3v21.8c0,22.7-2.3,46.7-19.4,61.4c-14.5,12.5-29.2,14.7-42.4,14.7c-10.8,0-30.4-0.6-45.3-14.1
			c-10.4-9.4-18.2-24.5-18.2-54.1V94.1z M211.5,9.6c0-3.9,2.9-9.4,9.4-9.4c5.3,0,9.6,3.3,9.6,8.8c0,5.7-3.9,10.2-9.8,10.2
			C214.1,19.2,211.5,13.9,211.5,9.6z M254.5,9.6c0-4.1,2.9-9.6,9.4-9.6c5.3,0,9.6,3.3,9.6,9s-3.9,10.2-9.8,10.2
			C257.2,19.2,254.5,13.9,254.5,9.6z"/>
		<path d="M421.5,177.4c20.8,0,28.8-5.1,32.1-11.2c1.8-3.3,3.1-6.9,3.7-9.8c0.4-2,0.8-3.3,2-3.3c1.6,0,2,1.4,2,6.3
			c0,6.5-2.7,19.8-4.1,24.9c-1,3.7-2.5,5.3-6.1,5.3c-34.1,0-68.4-1-109.6-1c-2.3,0-3.5-0.6-3.5-2s0.6-2.5,3.1-6.1
			c28.8-44.9,59-91,86.4-134.1h-40c-10.4,0-22.9,0.6-29.4,4.3c-6.7,3.7-10.4,11.2-11,15.9c-0.4,2.9-1.2,3.7-2.5,3.7
			c-1.4,0-1.6-1-1.6-3.5c0-4.7,3.1-23.3,4.1-29.4c0.4-2.9,1.2-3.9,2.4-3.9c1.8,0,3.1,1.2,8.2,1.4c19.4,0.8,29.2,0.6,37.6,0.6h62.3
			c2,0,3.5,0.6,3.5,1.6c0,1.2-0.8,2.5-1.6,3.9c-28.2,45.7-59.2,92.5-88,136.4L421.5,177.4L421.5,177.4z"/>
		<path d="M502.2,94.1c0-31,0-36.7-0.4-43.3c-0.4-6.9-2-10.2-8.8-11.6c-1.6-0.4-5.1-0.6-8-0.6c-2.2,0-3.5-0.4-3.5-1.8
			c0-1.4,1.4-1.8,4.5-1.8c10.8,0,23.7,0.6,29.8,0.6c4.9,0,17.8-0.6,25.1-0.6c3.1,0,4.5,0.4,4.5,1.8c0,1.4-1.2,1.8-3.3,1.8
			c-2.2,0-3.5,0.2-5.9,0.6c-5.5,1-7.2,4.5-7.6,11.6c-0.3,6.6-0.3,12.3-0.3,43.3v28.6c0,29.6,5.9,42,15.9,50.2
			c9.2,7.6,18.6,8.4,25.5,8.4c9,0,20-2.9,28.2-11c11.2-11.2,11.8-29.6,11.8-50.6V94.1c0-31,0-36.7-0.4-43.3
			c-0.4-6.9-2-10.2-8.8-11.6c-1.6-0.4-5.1-0.6-7.4-0.6s-3.5-0.4-3.5-1.8c0-1.4,1.4-1.8,4.3-1.8c10.4,0,23.3,0.6,23.5,0.6
			c2.5,0,15.3-0.6,23.3-0.6c2.9,0,4.3,0.4,4.3,1.8c0,1.4-1.2,1.8-3.7,1.8c-2.3,0-3.5,0.2-5.9,0.6c-5.5,1-7.1,4.5-7.6,11.6
			c-0.4,6.5-0.4,12.2-0.4,43.3v21.8c0,22.7-2.3,46.7-19.4,61.4c-14.5,12.5-29.2,14.7-42.4,14.7c-10.8,0-30.4-0.6-45.3-14.1
			c-10.4-9.4-18.2-24.5-18.2-54.1V94.1H502.2z M537.5,9.6c0-3.9,2.9-9.4,9.4-9.4c5.3,0,9.6,3.3,9.6,8.8c0,5.7-3.9,10.2-9.8,10.2
			C540.1,19.2,537.5,13.9,537.5,9.6z M580.6,9.6c0-4.1,2.9-9.6,9.4-9.6c5.3,0,9.6,3.3,9.6,9s-3.9,10.2-9.8,10.2
			C583.2,19.2,580.6,13.9,580.6,9.6z"/>
		<path d="M692.3,161.5c0.4,15.9,3.1,21.2,7.2,22.7c3.5,1.2,7.4,1.4,10.6,1.4c2.3,0,3.5,0.4,3.5,1.6c0,1.6-1.8,2-4.7,2
			c-13.3,0-21.4-0.6-25.3-0.6c-1.8,0-11.4,0.6-22.1,0.6c-2.7,0-4.5-0.2-4.5-2c0-1.2,1.2-1.6,3.3-1.6c2.7,0,6.3-0.2,9.2-1
			c5.3-1.6,6.1-7.6,6.3-25.3l1.8-120.8c0-4.1,0.6-6.9,2.7-6.9c2.3,0,4.1,2.7,7.6,6.3c2.5,2.6,33.5,35.9,63.3,65.5
			c13.9,13.9,41.5,43.3,44.9,46.5h1l-2-91.7c-0.2-12.4-2-16.3-6.9-18.4c-3.1-1.2-8-1.2-10.8-1.2c-2.4,0-3.3-0.6-3.3-1.8
			c0-1.6,2.2-1.8,5.3-1.8c10.6,0,20.4,0.6,24.7,0.6c2.2,0,10-0.6,20-0.6c2.7,0,4.7,0.2,4.7,1.8c0,1.2-1.2,1.8-3.7,1.8
			c-2,0-3.7,0-6.1,0.6c-5.7,1.6-7.4,5.9-7.6,17.3l-2.3,128.8c0,4.5-0.8,6.3-2.7,6.3c-2.2,0-4.7-2.2-6.9-4.5
			c-12.9-12.2-39-39-60.2-60c-22.2-22-44.9-47.6-48.6-51.4h-0.6L692.3,161.5z"/>
		<path d="M900.8,130c0,26.1,0,40.2,4.3,43.9c3.5,3.1,8.8,4.5,24.7,4.5c10.8,0,18.8-0.2,23.9-5.7c2.5-2.7,4.9-8.4,5.3-12.2
			c0.2-1.8,0.6-3.1,2.2-3.1c1.4,0,1.6,1,1.6,3.5c0,2.2-1.4,17.6-3.1,23.5c-1.2,4.5-2.2,5.5-12.8,5.5c-14.7,0-25.3-0.4-34.5-0.6
			c-9.2-0.4-16.5-0.6-24.9-0.6c-2.2,0-6.7,0-11.6,0.2c-4.7,0-10,0.4-14.1,0.4c-2.6,0-4.1-0.6-4.1-2c0-1,0.8-1.6,3.3-1.6
			c3.1,0,5.5-0.4,7.3-0.8c4.1-0.8,5.1-5.3,5.9-11.2c1-8.6,1-24.7,1-43.5V94.1c0-31,0-36.7-0.4-43.3c-0.4-6.9-2-10.2-8.8-11.6
			c-1.6-0.4-4.1-0.6-6.7-0.6c-2.3,0-3.5-0.4-3.5-1.8c0-1.4,1.4-1.8,4.5-1.8c9.6,0,22.5,0.6,28,0.6c4.9,0,19.8-0.6,27.8-0.6
			c2.9,0,4.3,0.4,4.3,1.8c0,1.4-1.2,1.8-3.7,1.8c-2.2,0-5.5,0.2-7.9,0.6c-5.5,1-7.2,4.5-7.6,11.6c-0.4,6.5-0.4,12.2-0.4,43.3V130z"
			/>
		<path d="M1002,94.1c0-31,0-36.7-0.4-43.3c-0.4-6.9-2-10.2-8.8-11.6c-1.6-0.4-5.1-0.6-8-0.6c-2.2,0-3.5-0.4-3.5-1.8
			c0-1.4,1.4-1.8,4.5-1.8c5.5,0,11.4,0.2,16.5,0.2c5.3,0.2,10,0.4,12.9,0.4c6.5,0,47.2,0,51-0.2c3.9-0.4,7.1-0.8,8.8-1.2
			c1-0.2,2.3-0.8,3.3-0.8s1.2,0.8,1.2,1.8c0,1.4-1,3.9-1.6,13.3c-0.2,2-0.6,11-1,13.5c-0.2,1-0.6,2.2-2,2.2s-1.8-1-1.8-2.9
			c0-1.4-0.2-4.9-1.2-7.4c-1.4-3.7-3.5-6.1-13.7-7.3c-3.5-0.4-24.9-0.8-29-0.8c-1,0-1.4,0.6-1.4,2v51.6c0,1.4,0.2,2.2,1.4,2.2
			c4.5,0,28,0,32.7-0.4c4.9-0.4,8-1,9.8-3.1c1.4-1.6,2.3-2.7,3.3-2.7c0.8,0,1.4,0.4,1.4,1.6s-0.8,4.5-1.6,14.9
			c-0.2,4.1-0.8,12.2-0.8,13.7c0,1.6,0,3.9-1.8,3.9c-1.4,0-1.8-0.8-1.8-1.8c-0.2-2-0.2-4.7-0.8-7.4c-1-4.1-3.9-7.1-11.4-8
			c-3.9-0.4-24.1-0.6-29-0.6c-1,0-1.2,0.8-1.2,2v16.1c0,6.9-0.2,25.7,0,31.6c0.4,14.1,3.7,17.1,24.5,17.1c5.3,0,13.9,0,19.2-2.4
			c5.3-2.5,7.8-6.7,9.2-15.1c0.4-2.2,0.8-3.1,2.3-3.1c1.6,0,1.6,1.6,1.6,3.7c0,4.7-1.6,18.6-2.7,22.7c-1.4,5.3-3.3,5.3-11,5.3
			c-15.3,0-26.5-0.4-35.3-0.6c-8.8-0.4-15.1-0.6-21.2-0.6c-2.2,0-6.7,0-11.6,0.2c-4.7,0-10,0.4-14.1,0.4c-2.6,0-4.1-0.6-4.1-2
			c0-1,0.8-1.6,3.3-1.6c3.1,0,5.5-0.4,7.3-0.8c4.1-0.8,5.1-5.3,5.9-11.2c1-8.6,1-24.7,1-43.5V94.1H1002z"/>
		<path d="M1129.5,94.1c0-31,0-36.7-0.4-43.3c-0.4-6.9-2-10.2-8.8-11.6c-1.6-0.4-5.1-0.6-7.9-0.6c-2.3,0-3.5-0.4-3.5-1.8
			c0-1.4,1.4-1.8,4.5-1.8c10.8,0,23.7,0.6,28,0.6c6.9,0,22.5-0.6,28.8-0.6c12.9,0,26.5,1.2,37.6,8.8c5.7,3.9,13.9,14.3,13.9,28
			c0,15.1-6.3,29-26.9,45.7c18.2,22.9,32.2,41,44.3,53.7c11.4,11.8,19.8,13.3,22.9,13.9c2.2,0.4,4.1,0.6,5.7,0.6s2.4,0.6,2.4,1.6
			c0,1.6-1.4,2-3.9,2h-19.4c-11.4,0-16.5-1-21.8-3.9c-8.8-4.7-16.5-14.3-28-30c-8.2-11.2-17.6-25.1-20.2-28.2
			c-1-1.2-2.2-1.4-3.7-1.4l-17.8-0.4c-1,0-1.6,0.4-1.6,1.6v2.9c0,19,0,35.1,1,43.7c0.6,5.9,1.8,10.4,7.9,11.2
			c3.1,0.4,7.6,0.8,10,0.8c1.6,0,2.5,0.6,2.5,1.6c0,1.4-1.4,2-4.1,2c-11.8,0-26.9-0.6-30-0.6c-3.9,0-16.7,0.6-24.9,0.6
			c-2.6,0-4.1-0.6-4.1-2c0-1,0.8-1.6,3.3-1.6c3.1,0,5.5-0.4,7.3-0.8c4.1-0.8,5.1-5.3,5.9-11.2c1-8.6,1-24.7,1-43.5L1129.5,94.1
			L1129.5,94.1z M1153.6,110.3c0,2.2,0.4,3.1,1.8,3.7c4.3,1.4,10.4,2,15.5,2c8.2,0,10.8-0.8,14.5-3.5c6.1-4.5,12-13.9,12-30.6
			c0-29-19.2-37.4-31.2-37.4c-5.1,0-8.8,0.2-10.8,0.8c-1.4,0.4-1.8,1.2-1.8,2.9V110.3z"/>
	</g>
	<g>
		<path d="M509.4,287.4c0,2.7-0.1,2.9-1.3,3.6c-6.5,3.4-16.3,4.5-24,4.5c-24.4,0-46.1-11.6-46.1-39.1c0-16,8.3-27.1,17.3-32.6
			c9.6-5.8,18.5-6.5,26.8-6.5c6.9,0,15.7,1.2,17.7,1.6c2.1,0.4,5.6,1,7.9,1.1c1.2,0.1,1.4,0.5,1.4,1.2c0,1.1-0.7,3.9-0.7,16.3
			c0,1.6-0.3,2.1-1.1,2.1c-0.7,0-0.9-0.5-1-1.3c-0.3-2.3-0.8-5.5-3.4-8.3c-3-3.2-11-7.8-22.2-7.8c-5.5,0-12.8,0.4-19.8,6.2
			c-5.6,4.7-9.2,12.2-9.2,24.4c0,21.4,13.7,37.5,34.7,37.5c2.6,0,6.1,0,8.5-1.1c1.5-0.7,1.9-2,1.9-3.7v-9.4c0-5,0-8.8-0.1-11.8
			c-0.1-3.4-1-5-4.3-5.7c-0.8-0.2-2.5-0.3-3.9-0.3c-0.9,0-1.5-0.2-1.5-0.8c0-0.8,0.7-1,2.1-1c5.2,0,11.5,0.3,14.5,0.3
			c3.1,0,8.4-0.3,11.7-0.3c1.3,0,2,0.2,2,1c0,0.6-0.6,0.8-1.3,0.8c-0.8,0-1.5,0.1-2.7,0.3c-2.7,0.5-3.7,2.2-3.8,5.7
			c-0.1,3-0.1,7-0.1,12L509.4,287.4L509.4,287.4z"/>
		<path d="M565.1,247.6c0-15.2,0-17.9-0.2-21.1c-0.2-3.4-1-5-4.3-5.7c-0.8-0.2-2.5-0.3-3.9-0.3c-1.1,0-1.7-0.2-1.7-0.9
			s0.7-0.9,2.2-0.9c5.3,0,11.6,0.3,13.7,0.3c3.4,0,11-0.3,14.1-0.3c6.3,0,13,0.6,18.4,4.3c2.8,1.9,6.8,7,6.8,13.7
			c0,7.4-3.1,14.2-13.2,22.3c8.9,11.2,15.7,20,21.6,26.2c5.6,5.8,9.7,6.5,11.2,6.8c1.1,0.2,2,0.3,2.8,0.3s1.2,0.3,1.2,0.8
			c0,0.8-0.7,1-1.9,1h-9.6c-5.6,0-8.1-0.5-10.7-1.9c-4.3-2.3-8.1-7-13.7-14.7c-4-5.5-8.6-12.3-9.9-13.8c-0.5-0.6-1.1-0.7-1.8-0.7
			l-8.7-0.2c-0.5,0-0.8,0.2-0.8,0.8v1.4c0,9.3,0,17.1,0.5,21.3c0.3,2.9,0.9,5.1,3.9,5.5c1.5,0.2,3.7,0.4,4.9,0.4
			c0.8,0,1.2,0.3,1.2,0.8c0,0.7-0.7,1-2,1c-5.8,0-13.2-0.3-14.7-0.3c-1.9,0-8.2,0.3-12.2,0.3c-1.3,0-2-0.3-2-1
			c0-0.5,0.4-0.8,1.6-0.8c1.5,0,2.7-0.2,3.6-0.4c2-0.4,2.5-2.6,2.9-5.5c0.5-4.2,0.5-12.1,0.5-21.2v-17.5H565.1z M576.8,255.5
			c0,1.1,0.2,1.5,0.9,1.8c2.1,0.7,5.1,1,7.6,1c4,0,5.3-0.4,7.1-1.7c3-2.2,5.9-6.8,5.9-15c0-14.2-9.4-18.2-15.3-18.2
			c-2.5,0-4.3,0.1-5.3,0.4c-0.7,0.2-0.9,0.6-0.9,1.4V255.5z"/>
		<path d="M666.2,247.6c0-15.2,0-17.9-0.2-21.1c-0.2-3.4-1-5-4.3-5.7c-0.8-0.2-2.5-0.3-3.9-0.3c-1.1,0-1.7-0.2-1.7-0.9
			s0.7-0.9,2.2-0.9c5.3,0,11.6,0.3,14.6,0.3c2.4,0,8.7-0.3,12.3-0.3c1.5,0,2.2,0.2,2.2,0.9s-0.6,0.9-1.6,0.9c-1.1,0-1.7,0.1-2.9,0.3
			c-2.7,0.5-3.5,2.2-3.7,5.7c-0.2,3.2-0.2,6-0.2,21.1v14c0,14.5,2.9,20.5,7.8,24.5c4.5,3.7,9.1,4.1,12.5,4.1c4.4,0,9.8-1.4,13.8-5.4
			c5.5-5.5,5.8-14.5,5.8-24.7v-12.5c0-15.2,0-17.9-0.2-21.1c-0.2-3.4-1-5-4.3-5.7c-0.8-0.2-2.5-0.3-3.6-0.3s-1.7-0.2-1.7-0.9
			s0.7-0.9,2.1-0.9c5.1,0,11.4,0.3,11.5,0.3c1.2,0,7.5-0.3,11.4-0.3c1.4,0,2.1,0.2,2.1,0.9s-0.6,0.9-1.8,0.9c-1.1,0-1.7,0.1-2.9,0.3
			c-2.7,0.5-3.5,2.2-3.7,5.7c-0.2,3.2-0.2,6-0.2,21.1v10.7c0,11.1-1.1,22.8-9.5,30c-7.1,6.1-14.3,7.2-20.7,7.2
			c-5.3,0-14.9-0.3-22.1-6.9c-5.1-4.6-8.9-12-8.9-26.4v-14.6H666.2z"/>
		<path d="M787.5,247.6c0-15.2,0-17.9-0.2-21.1c-0.2-3.4-1-5-4.3-5.7c-0.8-0.2-2.5-0.3-3.9-0.3c-1.1,0-1.7-0.2-1.7-0.9
			s0.7-0.9,2.2-0.9c5.3,0,11.6,0.3,14.4,0.3c4.1,0,9.9-0.3,14.5-0.3c12.5,0,16.9,4.2,18.6,5.7c2.2,2.1,5,6.6,5,11.9
			c0,14.2-10.4,24.1-24.5,24.1c-0.5,0-1.6,0-2.1-0.1s-1.2-0.2-1.2-0.9c0-0.8,0.7-1.1,2.8-1.1c5.6,0,13.4-6.3,13.4-16.5
			c0-3.3-0.3-10-5.9-15c-3.6-3.3-7.7-3.9-10-3.9c-1.5,0-3,0.1-3.9,0.4c-0.5,0.2-0.8,0.8-0.8,1.9v39.9c0,9.2,0,17.1,0.5,21.3
			c0.3,2.8,0.9,5,3.9,5.4c1.4,0.2,3.6,0.4,5.1,0.4c1.1,0,1.6,0.3,1.6,0.8c0,0.7-0.8,1-1.9,1c-6.6,0-12.9-0.3-15.5-0.3
			c-2.3,0-8.6,0.3-12.6,0.3c-1.3,0-2-0.3-2-1c0-0.5,0.4-0.8,1.6-0.8c1.5,0,2.7-0.2,3.6-0.4c2-0.4,2.5-2.6,2.9-5.5
			c0.5-4.2,0.5-12.1,0.5-21.2L787.5,247.6L787.5,247.6z"/>
	</g>
</g>
</svg>
