<?xml version="1.0" encoding="utf-8"?>
<!-- Generator: Adobe Illustrator 27.8.1, SVG Export Plug-In . SVG Version: 6.00 Build 0)  -->
<svg version="1.1" id="Layer_1" xmlns="http://www.w3.org/2000/svg" xmlns:xlink="http://www.w3.org/1999/xlink" x="0px" y="0px"
	 viewBox="0 0 1417.3 1417.3" style="enable-background:new 0 0 1417.3 1417.3;" xml:space="preserve">
<style type="text/css">
	.st0{fill:#005BAA;}
	.st1{fill:#FFFFFF;}
</style>
<g>
	<path class="st0" d="M708.7,90.7c-340.8,0-618,277.2-618,618s277.3,618,618,618s618-277.2,618-618S1049.4,90.7,708.7,90.7z"/>
	<path class="st1" d="M708.7,1292.4c-321.9,0-583.7-261.9-583.7-583.7S386.8,125,708.7,125c176.8,0,335.5,79.1,442.7,203.7
		c-41.2,12.3-115.3,45.9-162.2,67.4c12.5,23.9,17.7,53.7,13.1,87.7c-13.5,99-103.4,194.7-201,213.8c-21.3,4.2-41,4.1-59,0.8
		c-15.8,11.9-40.8,34-43.7,55.7c-4.4,32.1,21.6,42.1,71,32.4c49.4-9.7,104.6-20.5,113.4-22.2c97.4-19.1,149.1,44.6,140.8,105.7
		c-15.3,112.5-150.6,236-274.1,260.2c-123.5,24.2-206.4-25.7-196-102.3c10-73.4,71.2-124.5,120.5-154.3
		c-20.8-5.1-37.8-17.9-52.7-42.6c-45.4,47.2-95.3,88.5-137,96.7c-85.9,16.8-97.1-48.5-87.4-119.4c4.1-30.2,14.3-105.6,24.8-182.2
		c-56.5,20.1-144.6,52.2-174.5,73.1c-41.9,29.4,4.8-55.1,21.6-62c12.5-5.1,91.4-22.5,158.5-53.1c12-88,22.6-166.6,22.6-166.6
		l80.4-15.7c0,0-41.7,306.8-50,367.7c-8.3,60.9,9.5,87.4,50.1,79.5c49.1-9.6,134.3-113.2,173.6-164.2
		c-40.9-23.6-63.4-71.2-55.2-131.8c13.5-99,103.4-194.7,201-213.8c46.8-9.2,86.7,1.1,114.2,25.1c27.1-7.7,57.6-20.6,85.8-34
		c-99.7-90-234.7-141.8-382-130.3c-247.6,19.2-448.4,219.6-468,467.2c-24.9,314.3,235.2,574.7,549.4,550.4
		c252.3-19.5,454.9-227.1,468.9-479.8c5.7-102.2-18.9-198.2-65.3-280.1c-10.7-18.9-17.5-40-17.1-61.7c0.4-20.5,5-44.4,21.4-60.4
		c84.4,101.2,135.2,231.4,135.2,373.2C1292.4,1030.5,1030.5,1292.4,708.7,1292.4z"/>
	<path class="st0" d="M640.3,993.7c-8.6,63.6,33.9,104.3,118.2,87.8S936.1,992.7,945.8,921c9.7-71.7-55.5-77.2-148.3-59
		c-24.8,4.9-46.6,9.4-66,12.1C692.2,902.5,646.9,945.1,640.3,993.7z"/>
	<path class="st0" d="M845.3,373.4c-53.9,10.6-106.4,84-117.3,164.1c-10.9,80.1,24,136.4,77.9,125.9c53.9-10.6,106.4-84,117.3-164.1
		C934.1,419.2,899.2,362.8,845.3,373.4z"/>
</g>
</svg>
